<svg width="332" height="40" viewBox="0 0 332 40" fill="none" xmlns="http://www.w3.org/2000/svg">
    <g clip-path="url(#clip0_114_1807)">
    <path d="M29.2504 5.55566H34.1511L23.4444 17.7927L36.04 34.4446H26.1778L18.4533 24.3453L9.6148 34.4446H4.7111L16.163 21.3557L4.07999 5.55566H14.1926L21.1748 14.7868L29.2504 5.55566ZM27.5304 31.5112H30.2459L12.717 8.33492H9.80295L27.5304 31.5112Z" fill="white"/>
    <path d="M64.9465 10.488C67.3145 10.488 69.3732 10.936 71.1225 11.832C72.8718 12.728 74.2158 13.9867 75.1545 15.608C76.0932 17.208 76.5625 19.064 76.5625 21.176C76.5625 22.8613 76.2852 24.4827 75.7305 26.04C75.1758 27.576 74.3652 28.824 73.2985 29.784C72.2532 30.744 71.0265 31.224 69.6185 31.224C68.5518 31.224 67.7305 30.9573 67.1545 30.424C66.5785 29.8907 66.2478 29.1653 66.1625 28.248C65.5012 29.1653 64.6585 29.8907 63.6345 30.424C62.6318 30.9573 61.5652 31.224 60.4345 31.224C58.8132 31.224 57.5332 30.7333 56.5945 29.752C55.6772 28.7493 55.2185 27.4053 55.2185 25.72C55.2185 24.12 55.5492 22.6267 56.2105 21.24C56.8932 19.8533 57.8318 18.744 59.0265 17.912C60.2212 17.0587 61.5758 16.632 63.0905 16.632C65.1172 16.632 66.4825 17.4 67.1865 18.936L67.5385 16.952H70.0665L68.4665 26.2C68.4025 26.6053 68.3705 26.9787 68.3705 27.32C68.3705 28.6 68.9358 29.24 70.0665 29.24C70.9198 29.24 71.6558 28.8347 72.2745 28.024C72.9145 27.2133 73.3945 26.2 73.7145 24.984C74.0345 23.7467 74.1945 22.5307 74.1945 21.336C74.1945 18.5413 73.3518 16.376 71.6665 14.84C70.0025 13.304 67.6452 12.536 64.5945 12.536C62.0558 12.536 59.7625 13.1547 57.7145 14.392C55.6878 15.608 54.0985 17.2827 52.9465 19.416C51.7945 21.5493 51.2185 23.9067 51.2185 26.488C51.1972 29.304 52.0398 31.4693 53.7465 32.984C55.4532 34.52 57.8212 35.288 60.8505 35.288C62.8558 35.288 64.6265 34.9253 66.1625 34.2L66.5465 36.184C64.6478 36.9733 62.5572 37.368 60.2745 37.368C57.9918 37.368 55.9758 36.9307 54.2265 36.056C52.4985 35.2027 51.1545 33.9653 50.1945 32.344C49.2558 30.744 48.7865 28.8773 48.7865 26.744C48.7865 23.736 49.4798 20.9947 50.8665 18.52C52.2532 16.024 54.1732 14.0613 56.6265 12.632C59.1012 11.2027 61.8745 10.488 64.9465 10.488ZM61.2985 28.952C62.2585 28.952 63.1438 28.6747 63.9545 28.12C64.7652 27.544 65.4052 26.776 65.8745 25.816C66.3438 24.8347 66.5785 23.768 66.5785 22.616C66.5785 21.5067 66.2692 20.6107 65.6505 19.928C65.0532 19.224 64.1998 18.872 63.0905 18.872C62.0665 18.872 61.1598 19.1813 60.3705 19.8C59.6025 20.3973 59.0052 21.1973 58.5785 22.2C58.1518 23.1813 57.9385 24.2053 57.9385 25.272C57.9385 26.4027 58.2265 27.2987 58.8025 27.96C59.3785 28.6213 60.2105 28.952 61.2985 28.952ZM98.8567 8.696V31H95.9447V20.888H84.5847V31H81.6727V8.696H84.5847V18.488H95.9447V8.696H98.8567ZM103.061 22.168C103.061 20.376 103.424 18.808 104.149 17.464C104.874 16.0987 105.866 15.0427 107.125 14.296C108.405 13.5493 109.824 13.176 111.381 13.176C112.917 13.176 114.25 13.5067 115.381 14.168C116.512 14.8293 117.354 15.6613 117.909 16.664V13.464H120.853V31H117.909V27.736C117.333 28.76 116.469 29.6133 115.317 30.296C114.186 30.9573 112.864 31.288 111.349 31.288C109.792 31.288 108.384 30.904 107.125 30.136C105.866 29.368 104.874 28.2907 104.149 26.904C103.424 25.5173 103.061 23.9387 103.061 22.168ZM117.909 22.2C117.909 20.8773 117.642 19.7253 117.109 18.744C116.576 17.7627 115.85 17.016 114.933 16.504C114.037 15.9707 113.045 15.704 111.957 15.704C110.869 15.704 109.877 15.96 108.981 16.472C108.085 16.984 107.37 17.7307 106.837 18.712C106.304 19.6933 106.037 20.8453 106.037 22.168C106.037 23.512 106.304 24.6853 106.837 25.688C107.37 26.6693 108.085 27.4267 108.981 27.96C109.877 28.472 110.869 28.728 111.957 28.728C113.045 28.728 114.037 28.472 114.933 27.96C115.85 27.4267 116.576 26.6693 117.109 25.688C117.642 24.6853 117.909 23.5227 117.909 22.2ZM132.302 31.288C130.958 31.288 129.753 31.064 128.686 30.616C127.619 30.1467 126.777 29.5067 126.158 28.696C125.539 27.864 125.198 26.9147 125.134 25.848H128.142C128.227 26.7227 128.633 27.4373 129.358 27.992C130.105 28.5467 131.075 28.824 132.27 28.824C133.379 28.824 134.254 28.5787 134.894 28.088C135.534 27.5973 135.854 26.9787 135.854 26.232C135.854 25.464 135.513 24.8987 134.83 24.536C134.147 24.152 133.091 23.7787 131.662 23.416C130.361 23.0747 129.294 22.7333 128.462 22.392C127.651 22.0293 126.947 21.5067 126.35 20.824C125.774 20.12 125.486 19.2027 125.486 18.072C125.486 17.176 125.753 16.3547 126.286 15.608C126.819 14.8613 127.577 14.2747 128.558 13.848C129.539 13.4 130.659 13.176 131.918 13.176C133.859 13.176 135.427 13.6667 136.622 14.648C137.817 15.6293 138.457 16.9733 138.542 18.68H135.63C135.566 17.7627 135.193 17.0267 134.51 16.472C133.849 15.9173 132.953 15.64 131.822 15.64C130.777 15.64 129.945 15.864 129.326 16.312C128.707 16.76 128.398 17.3467 128.398 18.072C128.398 18.648 128.579 19.128 128.942 19.512C129.326 19.8747 129.795 20.1733 130.35 20.408C130.926 20.6213 131.715 20.8667 132.718 21.144C133.977 21.4853 135.001 21.8267 135.79 22.168C136.579 22.488 137.251 22.9787 137.806 23.64C138.382 24.3013 138.681 25.1653 138.702 26.232C138.702 27.192 138.435 28.056 137.902 28.824C137.369 29.592 136.611 30.2 135.63 30.648C134.67 31.0747 133.561 31.288 132.302 31.288ZM151.837 13.144C153.159 13.144 154.354 13.432 155.421 14.008C156.487 14.5627 157.319 15.4053 157.917 16.536C158.535 17.6667 158.845 19.0427 158.845 20.664V31H155.965V21.08C155.965 19.3307 155.527 17.9973 154.653 17.08C153.778 16.1413 152.583 15.672 151.069 15.672C149.533 15.672 148.306 16.152 147.389 17.112C146.493 18.072 146.045 19.4693 146.045 21.304V31H143.133V7.32H146.045V15.96C146.621 15.064 147.41 14.3707 148.413 13.88C149.437 13.3893 150.578 13.144 151.837 13.144ZM171.153 13.176C172.668 13.176 173.991 13.5067 175.121 14.168C176.273 14.8293 177.127 15.6613 177.681 16.664V13.464H180.625V31.384C180.625 32.984 180.284 34.4027 179.601 35.64C178.919 36.8987 177.937 37.88 176.657 38.584C175.399 39.288 173.927 39.64 172.241 39.64C169.937 39.64 168.017 39.096 166.481 38.008C164.945 36.92 164.039 35.4373 163.761 33.56H166.641C166.961 34.6267 167.623 35.48 168.625 36.12C169.628 36.7813 170.833 37.112 172.241 37.112C173.841 37.112 175.143 36.6107 176.145 35.608C177.169 34.6053 177.681 33.1973 177.681 31.384V27.704C177.105 28.728 176.252 29.5813 175.121 30.264C173.991 30.9467 172.668 31.288 171.153 31.288C169.596 31.288 168.177 30.904 166.897 30.136C165.639 29.368 164.647 28.2907 163.921 26.904C163.196 25.5173 162.833 23.9387 162.833 22.168C162.833 20.376 163.196 18.808 163.921 17.464C164.647 16.0987 165.639 15.0427 166.897 14.296C168.177 13.5493 169.596 13.176 171.153 13.176ZM177.681 22.2C177.681 20.8773 177.415 19.7253 176.881 18.744C176.348 17.7627 175.623 17.016 174.705 16.504C173.809 15.9707 172.817 15.704 171.729 15.704C170.641 15.704 169.649 15.96 168.753 16.472C167.857 16.984 167.143 17.7307 166.609 18.712C166.076 19.6933 165.809 20.8453 165.809 22.168C165.809 23.512 166.076 24.6853 166.609 25.688C167.143 26.6693 167.857 27.4267 168.753 27.96C169.649 28.472 170.641 28.728 171.729 28.728C172.817 28.728 173.809 28.472 174.705 27.96C175.623 27.4267 176.348 26.6693 176.881 25.688C177.415 24.6853 177.681 23.5227 177.681 22.2ZM188.778 16.312C189.29 15.3093 190.016 14.5307 190.954 13.976C191.914 13.4213 193.077 13.144 194.442 13.144V16.152H193.674C190.41 16.152 188.778 17.9227 188.778 21.464V31H185.866V13.464H188.778V16.312ZM214.124 21.56C214.124 22.1147 214.092 22.7013 214.028 23.32H200.012C200.119 25.048 200.705 26.4027 201.772 27.384C202.86 28.344 204.172 28.824 205.708 28.824C206.967 28.824 208.012 28.536 208.844 27.96C209.697 27.3627 210.295 26.5733 210.636 25.592H213.772C213.303 27.2773 212.364 28.6533 210.956 29.72C209.548 30.7653 207.799 31.288 205.708 31.288C204.044 31.288 202.551 30.9147 201.228 30.168C199.927 29.4213 198.903 28.3653 198.156 27C197.409 25.6133 197.036 24.0133 197.036 22.2C197.036 20.3867 197.399 18.7973 198.124 17.432C198.849 16.0667 199.863 15.0213 201.164 14.296C202.487 13.5493 204.001 13.176 205.708 13.176C207.372 13.176 208.844 13.5387 210.124 14.264C211.404 14.9893 212.385 15.992 213.068 17.272C213.772 18.5307 214.124 19.96 214.124 21.56ZM211.116 20.952C211.116 19.8427 210.871 18.8933 210.38 18.104C209.889 17.2933 209.217 16.6853 208.364 16.28C207.532 15.8533 206.604 15.64 205.58 15.64C204.108 15.64 202.849 16.1093 201.804 17.048C200.78 17.9867 200.193 19.288 200.044 20.952H211.116ZM234.288 21.56C234.288 22.1147 234.256 22.7013 234.192 23.32H220.176C220.282 25.048 220.869 26.4027 221.936 27.384C223.024 28.344 224.336 28.824 225.872 28.824C227.13 28.824 228.176 28.536 229.008 27.96C229.861 27.3627 230.458 26.5733 230.8 25.592H233.936C233.466 27.2773 232.528 28.6533 231.12 29.72C229.712 30.7653 227.962 31.288 225.872 31.288C224.208 31.288 222.714 30.9147 221.392 30.168C220.09 29.4213 219.066 28.3653 218.32 27C217.573 25.6133 217.2 24.0133 217.2 22.2C217.2 20.3867 217.562 18.7973 218.288 17.432C219.013 16.0667 220.026 15.0213 221.328 14.296C222.65 13.5493 224.165 13.176 225.872 13.176C227.536 13.176 229.008 13.5387 230.288 14.264C231.568 14.9893 232.549 15.992 233.232 17.272C233.936 18.5307 234.288 19.96 234.288 21.56ZM231.28 20.952C231.28 19.8427 231.034 18.8933 230.544 18.104C230.053 17.2933 229.381 16.6853 228.528 16.28C227.696 15.8533 226.768 15.64 225.744 15.64C224.272 15.64 223.013 16.1093 221.968 17.048C220.944 17.9867 220.357 19.288 220.208 20.952H231.28ZM246.996 13.144C249.129 13.144 250.857 13.7947 252.18 15.096C253.502 16.376 254.164 18.232 254.164 20.664V31H251.284V21.08C251.284 19.3307 250.846 17.9973 249.972 17.08C249.097 16.1413 247.902 15.672 246.388 15.672C244.852 15.672 243.625 16.152 242.708 17.112C241.812 18.072 241.364 19.4693 241.364 21.304V31H238.452V13.464H241.364V15.96C241.94 15.064 242.718 14.3707 243.7 13.88C244.702 13.3893 245.801 13.144 246.996 13.144ZM262.152 28.632H269.96V31H259.24V8.696H262.152V28.632ZM272.285 22.168C272.285 20.376 272.647 18.808 273.373 17.464C274.098 16.0987 275.09 15.0427 276.349 14.296C277.629 13.5493 279.047 13.176 280.605 13.176C282.141 13.176 283.474 13.5067 284.605 14.168C285.735 14.8293 286.578 15.6613 287.133 16.664V13.464H290.077V31H287.133V27.736C286.557 28.76 285.693 29.6133 284.541 30.296C283.41 30.9573 282.087 31.288 280.573 31.288C279.015 31.288 277.607 30.904 276.349 30.136C275.09 29.368 274.098 28.2907 273.373 26.904C272.647 25.5173 272.285 23.9387 272.285 22.168ZM287.133 22.2C287.133 20.8773 286.866 19.7253 286.333 18.744C285.799 17.7627 285.074 17.016 284.157 16.504C283.261 15.9707 282.269 15.704 281.181 15.704C280.093 15.704 279.101 15.96 278.205 16.472C277.309 16.984 276.594 17.7307 276.061 18.712C275.527 19.6933 275.261 20.8453 275.261 22.168C275.261 23.512 275.527 24.6853 276.061 25.688C276.594 26.6693 277.309 27.4267 278.205 27.96C279.101 28.472 280.093 28.728 281.181 28.728C282.269 28.728 283.261 28.472 284.157 27.96C285.074 27.4267 285.799 26.6693 286.333 25.688C286.866 24.6853 287.133 23.5227 287.133 22.2ZM298.23 16.728C298.827 15.6827 299.702 14.8293 300.854 14.168C302.006 13.5067 303.318 13.176 304.79 13.176C306.368 13.176 307.787 13.5493 309.046 14.296C310.304 15.0427 311.296 16.0987 312.022 17.464C312.747 18.808 313.11 20.376 313.11 22.168C313.11 23.9387 312.747 25.5173 312.022 26.904C311.296 28.2907 310.294 29.368 309.014 30.136C307.755 30.904 306.347 31.288 304.79 31.288C303.275 31.288 301.942 30.9573 300.79 30.296C299.659 29.6347 298.806 28.792 298.23 27.768V31H295.318V7.32H298.23V16.728ZM310.134 22.168C310.134 20.8453 309.867 19.6933 309.334 18.712C308.8 17.7307 308.075 16.984 307.158 16.472C306.262 15.96 305.27 15.704 304.182 15.704C303.115 15.704 302.123 15.9707 301.206 16.504C300.31 17.016 299.584 17.7733 299.03 18.776C298.496 19.7573 298.23 20.8987 298.23 22.2C298.23 23.5227 298.496 24.6853 299.03 25.688C299.584 26.6693 300.31 27.4267 301.206 27.96C302.123 28.472 303.115 28.728 304.182 28.728C305.27 28.728 306.262 28.472 307.158 27.96C308.075 27.4267 308.8 26.6693 309.334 25.688C309.867 24.6853 310.134 23.512 310.134 22.168ZM323.471 31.288C322.127 31.288 320.921 31.064 319.855 30.616C318.788 30.1467 317.945 29.5067 317.327 28.696C316.708 27.864 316.367 26.9147 316.303 25.848H319.311C319.396 26.7227 319.801 27.4373 320.527 27.992C321.273 28.5467 322.244 28.824 323.439 28.824C324.548 28.824 325.423 28.5787 326.063 28.088C326.703 27.5973 327.023 26.9787 327.023 26.232C327.023 25.464 326.681 24.8987 325.999 24.536C325.316 24.152 324.26 23.7787 322.831 23.416C321.529 23.0747 320.463 22.7333 319.631 22.392C318.82 22.0293 318.116 21.5067 317.519 20.824C316.943 20.12 316.655 19.2027 316.655 18.072C316.655 17.176 316.921 16.3547 317.455 15.608C317.988 14.8613 318.745 14.2747 319.727 13.848C320.708 13.4 321.828 13.176 323.087 13.176C325.028 13.176 326.596 13.6667 327.791 14.648C328.985 15.6293 329.625 16.9733 329.711 18.68H326.799C326.735 17.7627 326.361 17.0267 325.679 16.472C325.017 15.9173 324.121 15.64 322.991 15.64C321.945 15.64 321.113 15.864 320.495 16.312C319.876 16.76 319.567 17.3467 319.567 18.072C319.567 18.648 319.748 19.128 320.111 19.512C320.495 19.8747 320.964 20.1733 321.519 20.408C322.095 20.6213 322.884 20.8667 323.887 21.144C325.145 21.4853 326.169 21.8267 326.959 22.168C327.748 22.488 328.42 22.9787 328.975 23.64C329.551 24.3013 329.849 25.1653 329.871 26.232C329.871 27.192 329.604 28.056 329.071 28.824C328.537 29.592 327.78 30.2 326.799 30.648C325.839 31.0747 324.729 31.288 323.471 31.288Z" fill="white"/>
    </g>
    <defs>
    <clipPath id="clip0_114_1807">
    <rect width="332" height="40" fill="white"/>
    </clipPath>
    </defs>
    </svg>
    