<svg width="167" height="64" viewBox="0 0 167 64" fill="none" xmlns="http://www.w3.org/2000/svg">
<g clip-path="url(#clip0_705_9169)">
<path fill-rule="evenodd" clip-rule="evenodd" d="M29.553 29.7636C29.0158 29.9552 28.4702 30.1511 27.9159 30.3514C26.3243 30.9265 25.0595 31.3838 24.0048 31.7752C23.8003 32.6638 23.6095 33.5334 23.4382 34.368C23.4103 35.5861 23.2548 36.9621 22.96 38.5492C22.8715 39.0056 22.751 39.4216 22.6032 39.7989C22.2559 44.0499 22.4439 46.059 22.5544 47.2402C22.7087 48.8892 22.0274 49.8822 21.7811 49.9447C21.6356 49.9816 20.809 49.8397 20.5182 49.4988C20.2274 49.1579 19.1425 47.4059 19.0106 45.0702C18.9663 44.2877 18.9288 43.5576 18.9113 42.7672C18.0202 42.8634 17.0905 42.7054 16.233 42.3338C14.4606 41.5658 10.3032 36.7423 9.16156 33.1417C8.07541 29.7163 7.01069 23.3189 9.54601 21.5441C10.8797 20.6106 12.9822 21.0074 14.0002 21.2836C15.711 21.7477 17.4842 22.994 19.1783 24.737C19.6823 25.2556 20.1478 25.7577 20.5715 26.2592C21.5112 20.7366 23.1282 13.0889 23.2594 12.4873C23.4013 11.8367 23.5119 11.3761 23.67 11.0757C23.8631 10.709 24.0083 10.5291 24.2248 10.4453C24.5278 10.3281 25.3093 10.2863 25.8416 10.4182C26.8041 10.6565 27.5952 11.5607 28.0283 12.2616C28.3633 12.8038 28.7249 13.7912 28.524 14.7365C28.4651 15.0136 25.4555 25.9307 25.4555 25.9307C27.3055 25.3717 31.4055 24.1951 31.4055 24.1951C31.7733 22.9887 32.0983 21.9185 32.3879 20.9647C33.7254 16.5596 34.309 14.6375 34.8778 13.2549C35.5697 11.573 36.2766 10.2635 37.4589 9.69822C39.1229 8.90268 41.5771 9.13052 42.2568 9.44859C42.5059 9.56515 43.0622 9.91989 42.4853 11.0245C41.7826 12.3699 39.7412 16.7571 39.4401 17.4254C37.7112 21.2631 35.8491 25.9605 35.8491 25.9605C36.1585 25.3486 36.4792 24.7699 36.7837 24.2594C37.8135 22.5328 39.4161 20.4821 41.3544 18.8285C46.3271 14.5865 50.5625 16.4001 51.0636 16.9787C51.6545 17.661 51.8635 19.1302 51.6712 20.179C51.585 20.6497 51.3913 21.2417 51.0954 21.9538C51.358 21.6056 51.6051 21.2859 51.8334 21.0004C53.502 18.9143 55.4589 18.4566 55.9547 18.3973C56.8431 18.291 59.6571 18.6061 60.156 19.7313C60.4148 20.3149 58.6249 22.2957 56.9062 24.1978C56.2756 24.8956 55.6547 25.5828 55.1479 26.1866C53.2598 28.4362 46.7284 36.1811 46.7284 36.1811C44.5755 38.7672 42.5821 41.1492 41.0131 42.9748C36.883 47.7804 35.7203 48.8111 34.5162 49.3978C34.0745 49.613 33.5634 49.7348 33.4108 49.4473C33.3582 49.3482 33.3189 49.2329 33.2918 49.097C29.9057 52.9806 28.743 53.6288 28.3387 53.8542C28.3085 53.8711 28.2826 53.8855 28.2603 53.8988C28.2425 53.9093 28.2233 53.9208 28.2027 53.9331C27.7465 54.2053 26.6176 54.8791 25.7726 54.9427C25.4424 54.9675 24.1436 54.7554 23.7316 54.3715C23.1745 53.8525 22.8842 52.3902 22.874 51.6877C22.8501 50.039 23.3539 49.1936 23.7827 49.0632C24.3596 48.8878 29.1552 46.9774 36.4046 38.3806C41.7663 32.1149 41.9005 31.361 41.9005 31.361C40.0965 32.6094 37.5584 33.5519 36.1316 33.2524C35.3008 33.0781 34.4453 32.1465 34.2706 31.1129C34.1832 30.5961 34.3113 29.8222 34.5397 29.0938C33.2435 32.1991 31.9678 35.2342 31.0058 37.4408C28.4734 43.2494 27.6609 44.581 26.6876 45.4918C26.1809 45.966 25.7505 45.9016 25.6458 45.8646C24.9196 45.6082 24.9258 44.2145 24.9344 43.9492C24.9603 43.1426 25.2404 42.1949 25.6394 41.0648L28.7328 32.3044C28.7989 32.1171 28.8786 31.8972 28.9621 31.6667C29.2849 30.7755 29.666 29.7232 29.553 29.7636ZM19.6297 32.0878C19.3769 31.0043 19.0195 30.195 18.7711 29.8047C17.6176 27.9925 15.392 26.7561 14.5542 26.5059C13.8391 26.2923 13.1903 26.5102 12.8725 26.8185C12.2579 27.4145 11.9365 29.4691 12.0176 31.0877C12.1035 32.8007 12.9024 35.2062 13.9816 36.8076C15.0608 38.409 16.8467 39.7257 17.3048 39.8875L17.3075 39.8884C17.7455 40.0431 18.3978 40.2734 18.9616 39.3892C19.001 38.546 19.0614 37.5876 19.149 36.4642C19.2665 34.9554 19.4454 33.4348 19.6297 32.0878ZM44.9111 21.1721C45.3449 21.262 45.7088 21.6486 45.7778 22.1303C45.8724 22.7904 45.2902 24.3879 44.3378 25.4412C41.7804 28.2697 39.6348 29.9792 38.6443 30.2649C38.1199 30.4162 37.4985 30.3661 37.3099 30.2268C36.8125 29.8593 37.0457 28.9045 37.1833 28.5628C38.0042 26.5251 40.8697 23.4163 41.9974 22.5436C43.1251 21.6708 44.0263 20.9889 44.9111 21.1721Z" fill="#0B2127"/>
<path d="M39.3026 45.3375C39.2971 45.0502 40.4372 43.799 40.4372 43.799C45.6265 38.8608 53.5908 31.3111 54.1207 30.8823C54.6505 30.4534 54.9917 30.1773 55.5383 29.9504C56.0849 29.7234 56.7489 29.5671 57.813 29.6234C58.9418 29.6831 62.1479 30.1554 61.7874 31.1763C61.6348 31.6084 59.2778 33.4389 57.7829 34.5194C55.0538 36.4919 46.2033 43.3436 46.2033 43.3436C42.7699 45.8663 41.7611 46.3766 40.6718 46.6031C40.302 46.68 39.76 46.7097 39.6108 46.507C39.4206 46.2487 39.3084 45.6386 39.3026 45.3375Z" fill="#0B2127"/>
<path fill-rule="evenodd" clip-rule="evenodd" d="M21.6537 38.5751L21.6536 38.5758C21.2503 40.6541 20.1931 41.942 18.875 42.5535C17.5631 43.1622 16.0211 43.0875 14.6658 42.5002C14.1915 42.2947 13.5798 41.8301 12.9199 41.2105C12.2556 40.5868 11.5282 39.7923 10.8219 38.9103C9.41229 37.1499 8.07167 35.022 7.491 33.189C6.94447 31.4639 6.40299 28.99 6.31754 26.7185C6.27483 25.583 6.34568 24.4889 6.59214 23.561C6.83833 22.634 7.26508 21.8537 7.94892 21.3747C8.66288 20.8747 9.5688 20.7388 10.4065 20.7561C11.2473 20.7734 12.0438 20.9455 12.5607 21.0858C14.318 21.5624 16.1194 22.8357 17.8242 24.5905C19.5839 26.4019 20.8973 28.0334 21.589 30.1544C22.2806 32.2752 22.3436 34.862 21.6539 38.5743L21.6537 38.5751ZM10.7151 31.0673C10.7988 32.7453 11.5855 35.119 12.6463 36.6939C13.1735 37.4767 13.8768 38.1941 14.5072 38.7368C14.8219 39.0078 15.1165 39.2334 15.359 39.4004C15.6069 39.5711 15.7867 39.6709 15.8757 39.7023C16.0643 39.7689 16.2588 39.8364 16.4616 39.8393C16.6537 39.842 16.8588 39.7863 17.0676 39.5851C17.283 39.3776 17.5101 39.0073 17.7148 38.364C17.9188 37.7228 18.0965 36.824 18.2225 35.574C18.4323 32.8277 17.5734 30.6021 17.1223 29.8929C16.5633 29.0142 15.7394 28.2685 14.9462 27.7099C14.1511 27.1501 13.4038 26.7899 13.0107 26.6725C12.3564 26.4772 11.7795 26.6825 11.5138 26.9403C11.389 27.0614 11.2657 27.2718 11.1541 27.5637C11.044 27.852 10.9513 28.2038 10.8791 28.5918C10.7347 29.368 10.6754 30.272 10.7151 31.0673ZM18.41 35.5906C17.9036 40.6181 16.5547 40.1417 15.8157 39.8808L15.813 39.8798C15.3549 39.7181 13.5691 38.401 12.4901 36.799C11.4112 35.1971 10.6126 32.7905 10.527 31.0767C10.4462 29.4573 10.768 27.4017 11.3827 26.8052C11.7006 26.4968 12.3495 26.2786 13.0645 26.4922C13.9024 26.7423 16.1279 27.979 17.2811 29.7919C17.7545 30.5361 18.6235 32.8033 18.41 35.5906ZM21.4688 38.54C22.8425 31.1466 21.1982 28.3337 17.6892 24.7217C15.9953 22.9781 14.2223 21.7315 12.5115 21.2674C11.4933 20.9913 9.39086 20.5946 8.0569 21.5289C5.52113 23.3049 6.58481 29.7053 7.67044 33.1322C8.81158 36.7343 12.9684 41.5595 14.7407 42.3275C17.3709 43.4673 20.6814 42.5976 21.4688 38.54Z" fill="#0B2127"/>
<path fill-rule="evenodd" clip-rule="evenodd" d="M50.1647 20.86C51.8712 18.7258 53.878 18.2494 54.4113 18.1856C54.8833 18.129 55.8319 18.1846 56.7236 18.3941C57.1712 18.4993 57.6146 18.6456 57.9819 18.8421C58.346 19.037 58.6579 19.2933 58.8071 19.6301C58.8827 19.8007 58.8438 20.0024 58.7751 20.1865C58.7032 20.3795 58.5805 20.6004 58.4246 20.8388C58.112 21.3168 57.645 21.896 57.1139 22.5139C56.621 23.0872 56.0681 23.6994 55.5242 24.3015C55.4809 24.3495 55.4376 24.3973 55.3945 24.4452C54.8083 25.0943 54.2393 25.727 53.7697 26.2867C52.8253 27.4124 50.7197 29.9128 48.8504 32.1315C47.9157 33.2409 47.0401 34.28 46.3981 35.0417C46.0771 35.4226 45.8145 35.7341 45.6322 35.9504L45.349 36.2864L45.3485 36.2869C45.3484 36.2871 45.3483 36.2872 45.3481 36.2874C43.1948 38.8749 41.2002 41.2592 39.6298 43.0872C35.5063 47.8869 34.3174 48.9532 33.0711 49.5609C32.8408 49.6732 32.5801 49.7677 32.3473 49.7924C32.124 49.8161 31.8495 49.7798 31.7168 49.5297C31.5214 49.161 31.4958 48.6313 31.5624 47.8511C31.5992 47.4207 31.783 46.97 32.055 46.4708C32.3038 46.014 32.6363 45.4997 33.0193 44.9071C33.0557 44.8508 33.0926 44.7938 33.1299 44.7361C33.5287 44.1184 34.486 42.8443 35.657 41.2856C35.7673 41.1388 35.8795 40.9895 35.9932 40.838C37.3188 39.0728 38.8692 36.9989 40.2058 35.0879C41.0261 33.9151 42.0455 32.4162 43.137 30.8113C45.5981 27.1926 48.4258 23.0348 50.1647 20.86ZM45.2039 36.1665C45.2039 36.1665 51.7369 28.4167 53.6255 26.1657C54.1324 25.5615 54.7536 24.8739 55.3843 24.1756C57.1035 22.2723 58.8937 20.2902 58.635 19.7064C58.1363 18.5807 55.3222 18.266 54.4337 18.3725C53.9379 18.4319 51.9808 18.8902 50.3117 20.9776C48.5775 23.1466 45.7586 27.2914 43.2996 30.9071C42.2063 32.5146 41.1841 34.0176 40.3601 35.1958C38.9075 37.2725 37.2036 39.5405 35.8107 41.3944C34.6362 42.9577 33.6829 44.2265 33.288 44.8382C33.251 44.8955 33.2145 44.952 33.1784 45.0078C32.3736 46.2529 31.8139 47.1187 31.75 47.8671C31.6832 48.649 31.7163 49.1269 31.8831 49.4415C32.0356 49.7291 32.5468 49.6071 32.9886 49.3917C34.1928 48.8045 35.3558 47.7732 39.487 42.9645C41.0564 41.1377 43.0503 38.7542 45.2039 36.1665Z" fill="#0B2127"/>
<path fill-rule="evenodd" clip-rule="evenodd" d="M38.8004 43.6575L38.8052 43.6529C41.4005 41.1821 44.6898 38.0579 47.3966 35.4977C50.0977 32.9428 52.2306 30.9382 52.503 30.7176L52.5113 30.7108C53.0352 30.2866 53.3951 29.9952 53.9672 29.7575C54.5416 29.5188 55.2338 29.3582 56.3242 29.4158C56.8989 29.4461 57.997 29.5806 58.9112 29.8384C59.3656 29.9665 59.7929 30.1301 60.0871 30.3378C60.2348 30.442 60.3617 30.5661 60.4361 30.7151C60.5138 30.8705 60.5286 31.0425 60.4662 31.2194C60.4338 31.311 60.3576 31.4108 60.2756 31.5043C60.188 31.6044 60.0726 31.7204 59.9375 31.8471C59.667 32.1009 59.3074 32.4074 58.9083 32.7321C58.1096 33.382 57.1435 34.1124 56.3937 34.6546C55.0315 35.6397 52.1384 37.8455 49.5835 39.8069C48.3065 40.7872 47.1148 41.7059 46.2424 42.3795C45.8062 42.7162 45.4498 42.9918 45.2024 43.1831C45.0787 43.2787 44.9823 43.3533 44.9168 43.404L44.8172 43.4811L44.8169 43.4814C44.8169 43.4814 44.8168 43.4815 44.7015 43.3326C44.7015 43.3326 53.5537 36.476 56.2834 34.5021C57.7786 33.4209 60.136 31.5891 60.2887 31.1568C60.6494 30.1353 57.4432 29.6633 56.3142 29.6038C55.2501 29.5476 54.5861 29.7042 54.0394 29.9313C53.4927 30.1584 53.1515 30.4347 52.6215 30.8639C52.0915 31.2931 44.1254 38.8477 38.935 43.7893L38.7959 43.6625L38.8004 43.6575ZM38.935 43.7893C38.7959 43.6625 38.7959 43.6625 38.7959 43.6625L38.7958 43.6626L38.7956 43.6628L38.7923 43.6664L38.7826 43.6772C38.774 43.6866 38.7616 43.7004 38.7458 43.718C38.7143 43.7532 38.6693 43.8038 38.6154 43.8653C38.5076 43.9882 38.3637 44.1555 38.2196 44.3322C38.076 44.5083 37.9298 44.6969 37.8189 44.8618C37.7636 44.944 37.7145 45.0241 37.6787 45.0963C37.647 45.1601 37.6102 45.2469 37.6119 45.3322C37.6151 45.499 37.6469 45.7404 37.7017 45.973C37.7553 46.1998 37.8376 46.4487 37.9565 46.6103C38.0269 46.7059 38.1313 46.7589 38.2281 46.7895C38.3271 46.8208 38.4383 46.8351 38.5481 46.8396C38.768 46.8487 39.0119 46.8196 39.2075 46.7789C40.3431 46.5425 41.3837 46.0053 44.813 43.4843L44.8149 43.4829L44.8168 43.4815L44.7015 43.3326C41.2675 45.8571 40.2585 46.3678 39.1691 46.5946C38.7993 46.6717 38.2573 46.7014 38.1081 46.4987C37.9179 46.2403 37.8058 45.6299 37.8001 45.3286C37.7946 45.0412 38.935 43.7893 38.935 43.7893Z" fill="#0B2127"/>
<path fill-rule="evenodd" clip-rule="evenodd" d="M50.3464 20.9508C52.0155 18.8633 53.9726 18.405 54.4684 18.3456C55.3569 18.2392 58.171 18.5539 58.6697 19.6795C59.0233 20.4776 55.5489 23.8878 53.6602 26.1389C51.7716 28.3899 45.2385 36.1397 45.2385 36.1397C43.085 38.7274 41.0911 41.1109 39.5217 42.9377C35.3905 47.7463 34.2275 48.7777 33.0233 49.3649C32.5815 49.5803 32.0703 49.7022 31.9178 49.4146C31.751 49.1 31.7179 48.6222 31.7847 47.8403C31.8515 47.0584 32.4594 46.1483 33.3227 44.8113C34.186 43.4744 37.7174 38.9968 40.3947 35.1689C43.0721 31.341 47.8411 24.0841 50.3464 20.9508ZM17.6887 24.6948C21.1977 28.3068 22.8419 31.1196 21.4683 38.513C20.6809 42.5706 17.3703 43.4404 14.7401 42.3006C12.9678 41.5325 8.81103 36.7074 7.66989 33.1053C6.58426 29.6784 5.52057 23.278 8.05635 21.502C9.3903 20.5677 11.4928 20.9643 12.5109 21.2405C14.2217 21.7046 15.9948 22.9512 17.6887 24.6948ZM10.5265 31.0498C10.612 32.7635 11.4106 35.1701 12.4896 36.7721C13.5686 38.3741 15.3544 39.6911 15.8124 39.8529C16.5508 40.1136 17.9025 40.5974 18.4094 35.5637C18.623 32.7763 17.754 30.5092 17.2806 29.765C16.1273 27.9521 13.9018 26.7154 13.064 26.4652C12.3489 26.2517 11.7001 26.4698 11.3821 26.7783C10.7674 27.3748 10.4457 29.4304 10.5265 31.0498ZM38.9456 43.7624C38.9456 43.7624 37.8052 45.0143 37.8107 45.3018C37.8164 45.603 37.9285 46.2134 38.1187 46.4718C38.2679 46.6745 38.8099 46.6448 39.1797 46.5678C40.2691 46.3409 41.2781 45.8302 44.7122 43.3058C44.7122 43.3058 53.5643 36.4491 56.294 34.4752C57.7892 33.394 60.1466 31.5622 60.2993 31.1299C60.66 30.1084 57.4538 29.6365 56.3248 29.5769C55.2607 29.5207 54.5967 29.6773 54.05 29.9044C53.5033 30.1315 53.1621 30.4078 52.6321 30.837C52.1021 31.2662 44.136 38.8208 38.9456 43.7624Z" fill="white"/>
<path fill-rule="evenodd" clip-rule="evenodd" d="M34.7692 38.25L34.7696 38.2495C37.448 35.1178 38.8177 33.3671 39.5169 32.4014C39.6484 32.2198 39.7558 32.0663 39.8437 31.9369C39.0856 32.3898 38.2508 32.7805 37.4431 33.0564C36.3957 33.4142 35.3657 33.5886 34.6025 33.4285C34.1374 33.3309 33.6827 33.0267 33.3247 32.6217C32.9653 32.2152 32.6902 31.6925 32.5964 31.1367C32.5757 31.0136 32.5662 30.8788 32.5664 30.7354C31.5037 33.2742 30.4892 35.6766 29.6906 37.5088C27.1632 43.3067 26.3365 44.6794 25.3295 45.6223C24.7719 46.1446 24.268 46.0958 24.097 46.0355C23.8619 45.9524 23.6957 45.78 23.5795 45.584C23.4639 45.389 23.3914 45.1608 23.3451 44.943C23.2524 44.5074 23.2567 44.075 23.2612 43.9368C23.2883 43.0979 23.5784 42.1251 23.9771 40.9959L27.0705 32.2354C27.1379 32.0446 27.2179 31.8238 27.3015 31.593C27.4204 31.2647 27.5466 30.9162 27.6542 30.6054C27.7303 30.3854 27.7952 30.1896 27.8398 30.039C27.3976 30.1973 26.9498 30.3584 26.4962 30.5226C24.9529 31.0809 23.7181 31.5279 22.6842 31.9114C22.0272 34.775 21.5166 37.4247 21.349 39.3315C20.9478 43.8948 21.144 45.9979 21.2573 47.2137L21.2576 47.2168C21.3372 48.0704 21.2013 48.7604 21.0086 49.2502C20.9125 49.4945 20.8013 49.6914 20.6935 49.8347C20.6397 49.9062 20.5847 49.9671 20.5304 50.0143C20.4794 50.0585 20.4154 50.1027 20.3432 50.1211C20.2986 50.1324 20.2483 50.1334 20.2076 50.1323C20.1624 50.1311 20.1104 50.1265 20.0547 50.1192C19.943 50.1046 19.8082 50.0778 19.6693 50.0387C19.4029 49.9638 19.0757 49.8311 18.8916 49.6152C18.73 49.4256 18.3774 48.884 18.0489 48.0999C17.7189 47.3124 17.4086 46.2695 17.3415 45.0758C17.2098 42.7331 17.1377 40.8564 17.4823 36.4454C17.6548 34.238 17.9578 32.007 18.2175 30.3289C18.3474 29.4895 18.4665 28.7879 18.5532 28.296C18.5965 28.0501 18.6318 27.8565 18.6562 27.7244C18.6684 27.6583 18.6779 27.6075 18.6844 27.5733C18.6876 27.5561 18.6901 27.5431 18.6917 27.5344L18.6937 27.524C19.5771 21.986 21.4576 13.0949 21.5996 12.4441C21.7398 11.8018 21.8551 11.3128 22.0277 10.985C22.2228 10.6143 22.3951 10.3773 22.6807 10.2667C22.8627 10.1962 23.1596 10.1557 23.4652 10.1469C23.7754 10.1379 24.1219 10.1607 24.4097 10.2319C25.4452 10.4883 26.2694 11.4461 26.7092 12.1584C27.0584 12.7241 27.4425 13.7614 27.2279 14.7711C27.1969 14.9168 26.4268 17.7253 25.6686 20.4827C25.2886 21.8647 24.9105 23.238 24.6274 24.2658C24.4858 24.7797 24.368 25.2072 24.2855 25.5063L24.2466 25.6475C25.1718 25.3704 26.472 24.9908 27.5886 24.6668C28.2164 24.4846 28.7865 24.3199 29.1996 24.2008C29.4061 24.1412 29.5734 24.093 29.6891 24.0597L29.7706 24.0363C30.1256 22.8716 30.4405 21.8345 30.7222 20.9071C32.0597 16.5023 32.6468 14.5688 33.2193 13.1772C33.9087 11.5012 34.6377 10.1225 35.8923 9.52201C36.7586 9.10741 37.8184 8.9635 38.7391 8.9605C39.2012 8.95899 39.6331 8.99296 39.9946 9.04806C40.3521 9.10256 40.6537 9.17962 40.8478 9.27049C40.9868 9.33552 41.2411 9.47986 41.366 9.78745C41.4927 10.0994 41.4652 10.5248 41.1628 11.1038C40.463 12.444 38.424 16.8268 38.123 17.495C37.2599 19.4113 36.3631 21.543 35.6819 23.1963C35.6482 23.278 35.6151 23.3585 35.5825 23.4378C36.6118 21.8655 38.0492 20.122 39.7417 18.6771C42.2593 16.528 44.6025 15.9031 46.3908 15.898C47.2831 15.8955 48.035 16.0472 48.5988 16.2387C48.8806 16.3343 49.117 16.4404 49.3014 16.5433C49.4819 16.6438 49.6251 16.7482 49.7089 16.845C50.036 17.223 50.2442 17.7994 50.3487 18.3983C50.4539 19.0012 50.4588 19.6533 50.3581 20.202C50.1597 21.2836 49.4202 22.9582 48.22 25.1972C47.0167 27.442 40.1719 39.072 35.6184 44.7778C32.2885 48.9503 30.21 51.204 28.9093 52.447C28.2586 53.0688 27.8009 53.4393 27.4768 53.6711C27.2202 53.8546 27.0449 53.9523 26.9373 54.0123C26.9092 54.028 26.8857 54.0411 26.8665 54.0525C26.8489 54.063 26.8297 54.0745 26.8091 54.0868C26.5915 54.2168 26.2139 54.4424 25.7859 54.6492C25.3218 54.8734 24.7765 55.0868 24.2983 55.1229C24.1036 55.1376 23.6736 55.0852 23.2521 54.9864C23.0375 54.9361 22.817 54.8719 22.6211 54.7941C22.4287 54.7176 22.2448 54.622 22.1163 54.5023C21.7971 54.2046 21.5746 53.6643 21.4302 53.1419C21.2834 52.6107 21.2055 52.0535 21.2002 51.6839C21.1883 50.8415 21.3106 50.1916 21.499 49.7288C21.6833 49.2759 21.9468 48.9666 22.2423 48.8767C22.7741 48.7147 27.538 46.83 34.7688 38.2505L34.7692 38.25ZM35.1471 24.5034C34.8878 24.9495 34.6203 25.4395 34.3608 25.9531C34.3608 25.9531 34.5963 25.3588 34.9776 24.4203C35.6684 22.7203 36.8376 19.8906 37.9514 17.4177C38.2524 16.7494 40.2934 12.3622 40.996 11.0167C41.5728 9.91203 41.0169 9.55747 40.768 9.44098C40.0889 9.12311 37.6365 8.89591 35.9736 9.69181C34.792 10.2573 34.0852 11.5669 33.3933 13.2488C32.8246 14.6314 32.241 16.5535 30.9033 20.9585C30.6137 21.9124 30.2887 22.9826 29.9208 24.1889C29.9208 24.1889 26.1195 25.2814 24.1876 25.8617C24.1137 25.8839 24.0427 25.9053 23.9746 25.9259C23.9746 25.9259 23.9955 25.8503 24.0337 25.7114C24.4553 24.1822 26.9898 14.9859 27.0438 14.7319C27.2447 13.7867 26.8837 12.7994 26.549 12.2573C26.1164 11.5566 25.3261 10.6528 24.3645 10.4146C23.8325 10.2829 23.0516 10.3249 22.7487 10.4422C22.5324 10.526 22.3873 10.7059 22.1942 11.0727C22.0361 11.373 21.9255 11.8336 21.7835 12.4842C21.6416 13.1348 19.7614 22.0244 18.8791 27.5565C18.8791 27.5565 18.0138 32.0584 17.67 36.46C17.3261 40.8616 17.3982 42.7298 17.5295 45.0653C17.6607 47.4008 18.7444 49.1523 19.0349 49.4931C19.3254 49.8339 20.1514 49.9756 20.2968 49.9387C20.543 49.8761 21.2239 48.883 21.0702 47.2342C20.956 46.0097 20.7588 43.8953 21.1615 39.315C21.3323 37.3725 21.8553 34.6729 22.5235 31.7703C23.5776 31.3785 24.8415 30.921 26.4321 30.3456C26.927 30.1665 27.415 29.991 27.8962 29.8188C27.8989 29.8179 27.9015 29.817 27.9041 29.816C27.9589 29.7964 28.0136 29.7769 28.0682 29.7574C28.0855 29.7512 28.0912 29.7705 28.0873 29.8109C28.0843 29.8429 28.0753 29.888 28.0612 29.944C28.0598 29.9497 28.0584 29.9554 28.0569 29.9613C27.968 30.3054 27.7078 31.024 27.4772 31.6605C27.3937 31.891 27.3141 32.1108 27.248 32.298L24.1546 41.0586C23.7556 42.1887 23.4754 43.1364 23.4493 43.9429C23.4407 44.2082 23.4341 45.6018 24.1597 45.858C24.2643 45.8949 24.6944 45.9592 25.2009 45.4849C26.1737 44.574 26.986 43.2422 29.518 37.4336C30.3715 35.4757 31.4718 32.8656 32.6143 30.133C32.7595 29.7857 32.9054 29.4365 33.0515 29.0864C32.9364 29.4534 32.8467 29.832 32.7973 30.1834C32.7486 30.5294 32.7388 30.849 32.782 31.1054C32.9564 32.1388 33.8111 33.0701 34.6412 33.2442C35.9835 33.5258 38.3108 32.7062 40.0833 31.5671C40.1933 31.4964 40.3011 31.4245 40.4065 31.3515C40.4065 31.3515 40.3938 31.4225 40.2214 31.702C39.832 32.3332 38.6276 34.0283 34.9127 38.3718C27.6664 46.9698 22.8737 48.8812 22.2971 49.0567C21.8686 49.1872 21.365 50.0327 21.3885 51.6812C21.3984 52.3836 21.6882 53.8458 22.2447 54.3646C22.6563 54.7483 23.9541 54.9601 24.2841 54.9352C25.1286 54.8714 26.2568 54.1974 26.7127 53.9251C26.7333 53.9128 26.7525 53.9013 26.7703 53.8907C26.7926 53.8775 26.8185 53.863 26.8486 53.8462C27.3736 53.5533 29.1776 52.5466 35.4712 44.6604C40.0142 38.9678 46.8527 27.3495 48.0541 25.1083C49.2555 22.8671 49.9806 21.2168 50.173 20.168C50.3653 19.1193 50.1569 17.6503 49.5666 16.9682C49.0659 16.3898 44.8341 14.5774 39.8639 18.8203C37.9265 20.4742 36.3247 22.5252 35.2952 24.2518C35.2462 24.334 35.1968 24.4179 35.1471 24.5034ZM44.0969 22.1473C44.0387 21.74 43.731 21.4199 43.3793 21.3471C42.9992 21.2685 42.6004 21.3715 42.1419 21.6186C41.6816 21.8665 41.1875 22.2448 40.6208 22.6837C40.0725 23.1083 39.0845 24.0923 38.1286 25.2292C37.1713 26.3677 36.2666 27.6355 35.868 28.6251C35.8054 28.7803 35.7189 29.0831 35.7065 29.3847C35.6938 29.6957 35.7613 29.9415 35.9313 30.0672C35.9483 30.0797 35.9935 30.1016 36.0768 30.1213C36.156 30.1399 36.2556 30.1533 36.3687 30.1584C36.5956 30.1686 36.861 30.1447 37.1006 30.0755C37.554 29.9445 38.311 29.4696 39.2902 28.653C40.2613 27.8431 41.4302 26.7149 42.7038 25.3054C43.1624 24.7979 43.5354 24.1548 43.7817 23.5569C43.9046 23.2585 43.9946 22.9747 44.048 22.7284C44.1021 22.4788 44.1159 22.2804 44.0969 22.1473ZM43.4175 21.1628C43.8509 21.2525 44.2144 21.6391 44.2833 22.1207C44.3776 22.7807 43.7954 24.3782 42.8435 25.4316C40.2872 28.2605 38.1427 29.9704 37.1528 30.2563C36.6288 30.4077 36.0079 30.3578 35.8195 30.2185C35.3225 29.8512 35.5557 28.8965 35.6934 28.5548C36.5142 26.5171 39.3784 23.4078 40.5055 22.5349C41.6326 21.6619 42.5333 20.9798 43.4175 21.1628Z" fill="#0B2127"/>
<path fill-rule="evenodd" clip-rule="evenodd" d="M26.4321 30.3456C26.9861 30.1451 27.5313 29.9491 28.0682 29.7574C28.2104 29.7066 27.5698 31.3868 27.248 32.298C25.6921 36.7045 24.5536 39.9286 24.1546 41.0586C23.7556 42.1886 23.4754 43.1364 23.4493 43.9428C23.4407 44.2082 23.4341 45.6018 24.1597 45.858C24.2643 45.8949 24.6944 45.9592 25.2009 45.4849C26.1737 44.5739 26.986 43.2422 29.518 37.4335C30.4799 35.2269 31.7554 32.1917 33.0515 29.0864C32.8231 29.8147 32.6949 30.5886 32.782 31.1053C32.9564 32.1388 33.8111 33.0701 34.6412 33.2442C36.0668 33.5433 38.6034 32.6002 40.4065 31.3515C40.4065 31.3515 40.2721 32.1054 34.9127 38.3718C27.6664 46.9698 22.8737 48.8812 22.2971 49.0567C21.8686 49.1872 21.365 50.0327 21.3885 51.6812C21.3984 52.3836 21.6882 53.8458 22.2447 54.3646C22.6563 54.7483 23.9541 54.9601 24.2841 54.9352C25.1667 54.8685 26.3593 54.1353 26.7703 53.8907C27.1813 53.6461 28.8164 52.9992 35.4712 44.6604C40.0142 38.9678 46.8527 27.3495 48.0541 25.1083C49.2555 22.8671 49.9806 21.2168 50.173 20.168C50.3653 19.1193 50.1569 17.6503 49.5666 16.9682C49.0659 16.3898 44.8341 14.5774 39.8639 18.8203C37.9265 20.4742 36.3246 22.5252 35.2951 24.2518C34.9907 24.7624 34.67 25.3411 34.3608 25.953C34.3608 25.953 36.2227 21.2556 37.9514 17.4177C38.2524 16.7494 40.2934 12.3622 40.996 11.0167C41.5728 9.91203 41.0169 9.55746 40.768 9.44097C40.0889 9.12311 37.6365 8.89591 35.9736 9.6918C34.792 10.2573 34.0852 11.5669 33.3933 13.2488C32.7015 14.9308 31.9875 17.4112 29.9208 24.1889C29.9208 24.1889 25.8234 25.3664 23.9746 25.9259C23.9746 25.9259 26.9849 15.009 27.0438 14.7319C27.2447 13.7867 26.8837 12.7994 26.549 12.2573C26.1164 11.5566 25.3261 10.6528 24.3645 10.4146C23.8325 10.2829 23.0516 10.3249 22.7487 10.4422C22.5324 10.526 22.3873 10.7059 22.1942 11.0727C22.0361 11.373 21.9255 11.8336 21.7835 12.4842C21.6416 13.1348 19.7614 22.0244 18.8791 27.5565C18.8791 27.5565 18.0138 32.0584 17.67 36.46C17.3261 40.8616 17.3982 42.7298 17.5295 45.0653C17.6607 47.4008 18.7444 49.1523 19.0349 49.4931C19.3254 49.8339 20.1514 49.9756 20.2968 49.9387C20.543 49.8761 21.2239 48.883 21.0702 47.2342C20.956 46.0096 20.7588 43.8953 21.1615 39.315C21.3323 37.3725 21.8553 34.6729 22.5235 31.7703C23.5776 31.3785 24.8415 30.921 26.4321 30.3456ZM44.2833 22.1207C44.2144 21.639 43.8509 21.2525 43.4175 21.1628C42.5333 20.9798 41.6326 21.6619 40.5055 22.5348C39.3784 23.4078 36.5142 26.5171 35.6934 28.5548C35.5557 28.8965 35.3225 29.8512 35.8194 30.2185C36.0079 30.3578 36.6288 30.4077 37.1528 30.2563C38.1427 29.9704 40.2872 28.2605 42.8435 25.4316C43.7954 24.3782 44.3776 22.7807 44.2833 22.1207Z" fill="white"/>
<path fill-rule="evenodd" clip-rule="evenodd" d="M19.6588 55.6996L3.39552 34.924C3.27302 34.7675 3.3877 34.539 3.5864 34.5437L11.3442 34.7284L15.6749 32.4689L25.4811 32.8461L31.6824 30.938L35.4545 35.0873L42.4308 33.5789L46.8202 39.3997L52.7325 44.4397L38.6563 54.1111L21.5442 56.0965L19.6588 55.6996ZM46.6824 39.5295L42.3529 33.7883L35.3882 35.2942L31.6235 31.1531L25.5059 33.0354L15.7176 32.6589L11.3882 34.9178L3.58192 34.7319C3.54218 34.7309 3.51924 34.7766 3.54374 34.8079L19.7647 55.5295L21.5529 55.906L38.5882 53.9295L52.4235 44.4236L46.6824 39.5295Z" fill="white"/>
<path d="M4.13463 35.5628L19.7647 55.5295L21.553 55.906L38.5882 53.9295L52.4235 44.4237L46.6824 39.5295L42.353 33.7884L35.3882 35.2943L31.6235 31.1531L25.5059 33.0354L15.7177 32.659L11.3882 34.9178L4.54025 34.7547C4.11803 34.7447 3.8743 35.2302 4.13463 35.5628Z" fill="#0B2127"/>
<path fill-rule="evenodd" clip-rule="evenodd" d="M31.6235 31.1531L35.3882 35.2943L31.9059 52.4237H29.9294L31.6235 31.1531ZM25.5059 33.0354L26.4471 52.6119L22.6823 53.3648L15.7176 32.659L25.5059 33.0354ZM11.3882 34.9178L20.8 54.0237L19.7647 55.5296L3.48235 34.7296L11.3882 34.9178ZM46.6823 39.5296L42.3529 33.7884L34.5412 52.706L37.2706 53.459L46.6823 39.5296Z" fill="white"/>
<path d="M91.001 24.588V49H87.38V38.001H74.647V49H71.009V24.588H74.647V35.366H87.38V24.588H91.001ZM103.19 31.456C104.459 31.456 105.604 31.6657 106.624 32.085C107.655 32.493 108.528 33.088 109.242 33.87C109.967 34.6407 110.523 35.5757 110.908 36.675C111.293 37.763 111.486 38.987 111.486 40.347C111.486 41.707 111.293 42.9367 110.908 44.036C110.523 45.1353 109.967 46.0703 109.242 46.841C108.528 47.6117 107.655 48.2067 106.624 48.626C105.604 49.034 104.459 49.238 103.19 49.238C101.909 49.238 100.753 49.034 99.722 48.626C98.702 48.2067 97.8293 47.6117 97.104 46.841C96.3787 46.0703 95.8177 45.1353 95.421 44.036C95.0357 42.9367 94.843 41.707 94.843 40.347C94.843 38.987 95.0357 37.763 95.421 36.675C95.8177 35.5757 96.3787 34.6407 97.104 33.87C97.8293 33.088 98.702 32.493 99.722 32.085C100.753 31.6657 101.909 31.456 103.19 31.456ZM103.19 46.654C104.822 46.654 106.04 46.1043 106.845 45.005C107.65 43.9057 108.052 42.3587 108.052 40.364C108.052 38.3693 107.65 36.8223 106.845 35.723C106.04 34.6123 104.822 34.057 103.19 34.057C101.535 34.057 100.3 34.6123 99.484 35.723C98.6793 36.8223 98.277 38.3693 98.277 40.364C98.277 42.3587 98.6793 43.9057 99.484 45.005C100.3 46.1043 101.535 46.654 103.19 46.654ZM122.547 31.456C123.817 31.456 124.961 31.6657 125.981 32.085C127.013 32.493 127.885 33.088 128.599 33.87C129.325 34.6407 129.88 35.5757 130.265 36.675C130.651 37.763 130.843 38.987 130.843 40.347C130.843 41.707 130.651 42.9367 130.265 44.036C129.88 45.1353 129.325 46.0703 128.599 46.841C127.885 47.6117 127.013 48.2067 125.981 48.626C124.961 49.034 123.817 49.238 122.547 49.238C121.267 49.238 120.111 49.034 119.079 48.626C118.059 48.2067 117.187 47.6117 116.461 46.841C115.736 46.0703 115.175 45.1353 114.778 44.036C114.393 42.9367 114.2 41.707 114.2 40.347C114.2 38.987 114.393 37.763 114.778 36.675C115.175 35.5757 115.736 34.6407 116.461 33.87C117.187 33.088 118.059 32.493 119.079 32.085C120.111 31.6657 121.267 31.456 122.547 31.456ZM122.547 46.654C124.179 46.654 125.398 46.1043 126.202 45.005C127.007 43.9057 127.409 42.3587 127.409 40.364C127.409 38.3693 127.007 36.8223 126.202 35.723C125.398 34.6123 124.179 34.057 122.547 34.057C120.893 34.057 119.657 34.6123 118.841 35.723C118.037 36.8223 117.634 38.3693 117.634 40.364C117.634 42.3587 118.037 43.9057 118.841 45.005C119.657 46.1043 120.893 46.654 122.547 46.654ZM140.513 40.381C141.103 40.381 141.618 40.3017 142.06 40.143C142.514 39.9843 142.888 39.7633 143.182 39.48C143.488 39.1853 143.715 38.834 143.862 38.426C144.021 38.018 144.1 37.5703 144.1 37.083C144.1 36.0857 143.794 35.2923 143.182 34.703C142.582 34.1023 141.692 33.802 140.513 33.802C139.346 33.802 138.456 34.1023 137.844 34.703C137.244 35.2923 136.943 36.0857 136.943 37.083C136.943 37.5703 137.017 38.018 137.164 38.426C137.323 38.8227 137.55 39.1683 137.844 39.463C138.15 39.7463 138.524 39.973 138.966 40.143C139.42 40.3017 139.935 40.381 140.513 40.381ZM145.8 49.901C145.8 49.493 145.687 49.17 145.46 48.932C145.234 48.6827 144.922 48.49 144.525 48.354C144.14 48.2067 143.687 48.1047 143.165 48.048C142.644 47.98 142.094 47.929 141.516 47.895C140.95 47.861 140.366 47.8327 139.765 47.81C139.165 47.776 138.587 47.7193 138.031 47.64C137.442 47.9347 136.955 48.2917 136.569 48.711C136.195 49.1303 136.008 49.6233 136.008 50.19C136.008 50.5527 136.099 50.8927 136.28 51.21C136.473 51.5273 136.762 51.7993 137.147 52.026C137.544 52.264 138.037 52.4453 138.626 52.57C139.227 52.706 139.941 52.774 140.768 52.774C141.584 52.774 142.304 52.7003 142.927 52.553C143.551 52.417 144.072 52.2187 144.491 51.958C144.922 51.7087 145.245 51.4083 145.46 51.057C145.687 50.7057 145.8 50.3203 145.8 49.901ZM149.166 32.374V33.615C149.166 34.023 148.911 34.278 148.401 34.38L146.548 34.652C146.707 35.0033 146.832 35.3773 146.922 35.774C147.013 36.1593 147.058 36.5673 147.058 36.998C147.058 37.848 146.894 38.6187 146.565 39.31C146.237 39.99 145.783 40.5737 145.205 41.061C144.627 41.5483 143.936 41.9223 143.131 42.183C142.338 42.4437 141.465 42.574 140.513 42.574C139.731 42.574 139 42.489 138.32 42.319C137.98 42.523 137.72 42.7497 137.538 42.999C137.368 43.237 137.283 43.475 137.283 43.713C137.283 44.1097 137.448 44.4043 137.776 44.597C138.116 44.7897 138.553 44.9313 139.085 45.022C139.629 45.1013 140.247 45.1523 140.938 45.175C141.641 45.1977 142.349 45.2373 143.063 45.294C143.789 45.3393 144.497 45.43 145.188 45.566C145.891 45.6907 146.509 45.9003 147.041 46.195C147.585 46.4783 148.022 46.875 148.35 47.385C148.69 47.8837 148.86 48.5353 148.86 49.34C148.86 50.088 148.673 50.8133 148.299 51.516C147.937 52.2187 147.404 52.842 146.701 53.386C145.999 53.93 145.143 54.3663 144.134 54.695C143.126 55.0237 141.981 55.188 140.7 55.188C139.42 55.188 138.303 55.0633 137.351 54.814C136.411 54.5647 135.623 54.2303 134.988 53.811C134.365 53.3917 133.895 52.9043 133.577 52.349C133.271 51.7937 133.118 51.2157 133.118 50.615C133.118 49.7763 133.379 49.068 133.9 48.49C134.422 47.9007 135.141 47.4417 136.059 47.113C135.561 46.8863 135.164 46.5803 134.869 46.195C134.575 45.7983 134.427 45.277 134.427 44.631C134.427 44.3817 134.473 44.1267 134.563 43.866C134.654 43.594 134.79 43.3277 134.971 43.067C135.164 42.795 135.396 42.54 135.668 42.302C135.952 42.064 136.275 41.8487 136.637 41.656C135.787 41.18 135.119 40.551 134.631 39.769C134.144 38.9757 133.9 38.052 133.9 36.998C133.9 36.148 134.065 35.383 134.393 34.703C134.722 34.023 135.175 33.4393 135.753 32.952C136.343 32.4647 137.04 32.0907 137.844 31.83C138.66 31.5693 139.55 31.439 140.513 31.439C142.009 31.439 143.296 31.7507 144.372 32.374H149.166ZM155.676 31.728V49H152.361V31.728H155.676ZM156.305 26.39C156.305 26.696 156.243 26.9907 156.118 27.274C155.993 27.546 155.823 27.7897 155.608 28.005C155.404 28.209 155.16 28.3733 154.877 28.498C154.594 28.6113 154.299 28.668 153.993 28.668C153.687 28.668 153.398 28.6113 153.126 28.498C152.854 28.3733 152.61 28.209 152.395 28.005C152.191 27.7897 152.027 27.546 151.902 27.274C151.789 26.9907 151.732 26.696 151.732 26.39C151.732 26.0727 151.789 25.778 151.902 25.506C152.027 25.2227 152.191 24.979 152.395 24.775C152.61 24.5597 152.854 24.3953 153.126 24.282C153.398 24.1573 153.687 24.095 153.993 24.095C154.299 24.095 154.594 24.1573 154.877 24.282C155.16 24.3953 155.404 24.5597 155.608 24.775C155.823 24.979 155.993 25.2227 156.118 25.506C156.243 25.778 156.305 26.0727 156.305 26.39ZM163.943 31.728V49H160.628V31.728H163.943ZM164.572 26.39C164.572 26.696 164.51 26.9907 164.385 27.274C164.261 27.546 164.091 27.7897 163.875 28.005C163.671 28.209 163.428 28.3733 163.144 28.498C162.861 28.6113 162.566 28.668 162.26 28.668C161.954 28.668 161.665 28.6113 161.393 28.498C161.121 28.3733 160.878 28.209 160.662 28.005C160.458 27.7897 160.294 27.546 160.169 27.274C160.056 26.9907 159.999 26.696 159.999 26.39C159.999 26.0727 160.056 25.778 160.169 25.506C160.294 25.2227 160.458 24.979 160.662 24.775C160.878 24.5597 161.121 24.3953 161.393 24.282C161.665 24.1573 161.954 24.095 162.26 24.095C162.566 24.095 162.861 24.1573 163.144 24.282C163.428 24.3953 163.671 24.5597 163.875 24.775C164.091 24.979 164.261 25.2227 164.385 25.506C164.51 25.778 164.572 26.0727 164.572 26.39Z" fill="white"/>
</g>
<defs>
<clipPath id="clip0_705_9169">
<rect width="167" height="64" rx="12" fill="white"/>
</clipPath>
</defs>
</svg>
