<svg width="213" height="39" viewBox="0 0 213 39" fill="none" xmlns="http://www.w3.org/2000/svg">
<path d="M36.8364 19.6655C36.8364 28.1343 30.1573 35 21.9179 35C13.6786 35 7 28.1343 7 19.6655C7 11.1967 13.6791 4.33149 21.9185 4.33149C30.1578 4.33149 36.8369 11.1966 36.8369 19.666M53.2026 19.666C53.2026 11.6941 49.8628 5.23133 45.7434 5.23133C41.624 5.23133 38.2842 11.6941 38.2842 19.666C38.2842 27.6379 41.624 34.1007 45.7434 34.1007C49.8628 34.1007 53.2026 27.6379 53.2026 19.666M59.8969 19.666C59.8969 12.5231 58.7222 6.73313 57.2734 6.73313C55.8246 6.73313 54.6499 12.5231 54.6499 19.666C54.6499 26.8089 55.8241 32.5989 57.2734 32.5989C58.7227 32.5989 59.8969 26.8089 59.8969 19.666ZM101.069 5.66108C99.5202 6.0174 98.734 6.54955 98.734 8.4692H98.727L98.734 31.4927C98.8668 33.0085 99.6646 33.4765 101.069 33.7997L101.11 33.8095V34.1379H90.3052V33.8095L90.3463 33.7997C91.7505 33.4765 92.5276 33.0085 92.6603 31.4927V9.0934L82.2457 34.0826H81.6723L71.55 9.77242V30.9368C71.55 32.8559 72.3362 33.3886 73.8848 33.7449L73.9259 33.7542V34.0826H67.7254V33.7542L67.7665 33.7449C69.3151 33.388 70.1043 32.8559 70.1043 30.9368V8.4692C70.1043 6.54955 69.3181 6.0174 67.7695 5.66108L67.7285 5.65178V5.32339H76.8705L84.7482 24.2252L92.6258 5.32339H101.11V5.65178L101.068 5.66108M113.237 20.5441C113.311 17.3937 112.832 15.2847 111.814 14.2763C111.335 13.801 110.718 13.5564 109.983 13.544C107.601 13.5936 106.181 16.5078 106.004 20.5441H113.237V20.5441ZM105.896 21.6808C105.651 26.1123 108.358 29.7696 111.892 30.0395C114.479 30.2371 116.752 28.6173 118.02 25.9447L118.384 26.0756C117.664 31.0485 114.77 34.7538 109.808 34.7538C104.152 34.7538 100.968 29.9454 100.83 23.9289C100.826 23.6961 100.828 23.465 100.833 23.2354C100.836 23.0921 100.841 22.9494 100.848 22.8072C100.852 22.7311 100.856 22.6556 100.861 22.5796C100.866 22.5 100.871 22.4203 100.878 22.3407C101.081 19.6836 101.92 17.3192 103.302 15.5697C104.161 14.4826 105.194 13.6547 106.365 13.1013C107.393 12.5723 108.839 12.2806 110.017 12.2806H110.069C112.339 12.2806 114.501 13.0651 115.961 14.4899C117.651 16.1385 118.526 18.5397 118.561 21.6265V21.6808H105.895M132.878 15.0189C132.468 14.0534 131.607 13.5 130.515 13.5C127.906 13.5 126.22 17.0772 126.22 22.6127C126.22 25.2714 126.648 27.5153 127.457 29.1035C128.211 30.5825 129.268 31.397 130.435 31.397C131.601 31.397 132.463 30.8432 132.878 29.8373V15.0194V15.0189ZM141.32 33.7925V34.1369H132.878V30.807C131.911 33.2846 129.799 34.7533 127.173 34.7533C122.685 34.7533 119.67 30.5515 119.67 24.2981C119.67 20.796 120.656 17.7774 122.522 15.5676C124.311 13.4478 126.793 12.2806 129.508 12.2806C130.847 12.2806 131.95 12.5749 132.877 13.1799V9.49937C132.877 8.68434 132.683 8.10513 132.282 7.72761C131.77 7.24511 130.891 7.06256 129.593 7.16961L129.535 7.17426V6.82726L138.946 4V30.8349C138.946 32.8497 139.733 33.4082 141.281 33.7826L141.322 33.7925H141.32ZM149.348 7.64901C149.348 9.60176 147.906 11.0746 145.993 11.0746C144.08 11.0746 142.597 9.57022 142.597 7.64901C142.597 5.7278 144.088 4.22341 145.993 4.22341C147.898 4.22341 149.348 5.69625 149.348 7.64901M151.61 33.7925V34.1369H143.161V18.1497C143.161 15.9699 142.661 15.3276 140.833 15.1622L140.785 15.1575V14.8198L149.227 12.3452V30.8349H149.234C149.234 32.8497 150.02 33.4082 151.569 33.7826L151.61 33.7925H151.61ZM173.243 33.7925V34.1369H164.8V30.7247C163.839 33.1822 161.662 34.7533 159.176 34.7533C156.241 34.7533 154.369 33.388 153.654 30.7728L153.5 30.0985C153.384 29.4722 153.324 28.7865 153.324 28.0392V18.1492C153.324 15.9694 152.824 15.3271 150.997 15.1616L150.948 15.157V14.8193L159.391 12.3447V27.8752C159.391 30.1729 160.401 31.4384 162.237 31.4384C163.368 31.4001 164.303 30.8007 164.8 29.7949V18.1094C164.8 15.9203 164.369 15.2408 162.875 15.0804L162.827 15.0753V14.7381L170.867 12.3452V30.8349C170.867 32.8497 171.653 33.4082 173.202 33.7826L173.243 33.7925V33.7925ZM197.557 34.1369V18.79C197.557 16.3092 196.691 15.1037 194.912 15.1037C193.442 15.1037 192.686 16.1913 192.31 17.1108C192.387 17.5535 192.429 18.0489 192.429 18.5433V31.3691C192.429 32.874 192.859 33.4604 194.2 33.7821L194.242 33.7919V34.1369H186.363V18.79C186.363 16.3438 185.473 15.1037 183.719 15.1037C182.305 15.1037 181.588 16.1059 181.235 16.951V31.3691C181.235 32.874 181.665 33.4604 183.006 33.7821L183.047 33.7919V34.1369H175.169V18.0091C175.169 15.8872 174.647 15.2263 172.842 15.0623L172.793 15.0577V14.7195L181.235 12.3463V15.9601C182.089 13.6495 184.079 12.2811 186.618 12.2811C189.508 12.2811 191.463 13.6909 192.142 16.2564C192.997 13.8351 195.219 12.2811 197.852 12.2811C201.466 12.2811 203.624 14.6222 203.624 18.5433V31.1229C203.624 32.6413 204.279 33.387 205.958 33.7826L206 33.7925V34.1374H197.558L197.557 34.1369Z" fill="white"/>
</svg>
